# xmcd CD database file
#
# Track frame offsets:
#	150
#	19065
#	33166
#	67620
#	95742
#	123785
#	164140
#	188138
#	209616
#	240791
#	262358
#	286388
#
# Disc length: 4225 seconds
#
# Revision: 0
# Processed by: cddbd v1.5.1PL0 Copyright (c) Steve Scherf et al.
# Submitted via: CDex 1.50beta8
#
DISCID=a7107f0c
DTITLE=Bank Band  - 沿志奏逢
DYEAR=2004
DGENRE=J-POP
TTITLE0=優しい歌 (Mr.Children)
TTITLE1=歓喜の歌 (遠藤賢司)
TTITLE2=僕と彼女の週末に
TTITLE3=トーキョー シティー ヒエラルキー (ヒートウェイヴ)
TTITLE4=突然の贈りもの (大貫妙子)
TTITLE5=限りない欲望 (井上陽水)
TTITLE6=マイ ホーム タウン (浜田省吾)
TTITLE7=糸 (中島みゆき)
TTITLE8=HERO (Mr.Children)
TTITLE9=幸福のカノン (さねよしいさこ)
TTITLE10=カルアミルク (岡村靖幸)
TTITLE11=僕たちの将来 (中島みゆき)
EXTD=YEAR: 2004
EXTT0=
EXTT1=
EXTT2=
EXTT3=
EXTT4=
EXTT5=
EXTT6=
EXTT7=
EXTT8=
EXTT9=
EXTT10=
EXTT11=
PLAYORDER=
